<?xml version="1.0" encoding="UTF-8" standalone="no"?>
<!DOCTYPE svg PUBLIC "-//W3C//DTD SVG 1.1//EN"
 "http://www.w3.org/Graphics/SVG/1.1/DTD/svg11.dtd">
<!-- Generated by graphviz version 2.38.0 (20140413.2041)
 -->
<!-- Title: reading local file using jQuery.get Pages: 1 -->
<svg width="496pt" height="335pt"
 viewBox="0.00 0.00 496.44 335.00" xmlns="http://www.w3.org/2000/svg" xmlns:xlink="http://www.w3.org/1999/xlink">
<g id="graph0" class="graph" transform="scale(1 1) rotate(0) translate(4 331)">
<title>reading local file using jQuery.get</title>
<polygon fill="white" stroke="none" points="-4,4 -4,-331 492.445,-331 492.445,4 -4,4"/>
<!-- ok -->
<g id="node1" class="node"><title>ok</title>
<ellipse fill="none" stroke="black" cx="126.445" cy="-18" rx="27" ry="18"/>
<text text-anchor="middle" x="126.445" y="-14.3" font-family="Times,serif" font-size="14.00">OK</text>
</g>
<!-- html -->
<g id="node2" class="node"><title>html</title>
<ellipse fill="none" stroke="black" cx="60.4446" cy="-309" rx="60.3893" ry="18"/>
<text text-anchor="middle" x="60.4446" y="-305.3" font-family="Times,serif" font-size="14.00">open html as?</text>
</g>
<!-- html&#45;&gt;ok -->
<g id="edge1" class="edge"><title>html&#45;&gt;ok</title>
<path fill="none" stroke="black" d="M52.9016,-291.125C37.8385,-254.819 7.83645,-167.3 36.4446,-102 48.9638,-73.4243 76.7129,-50.3318 98.1124,-35.8286"/>
<polygon fill="black" stroke="black" points="100.076,-38.7263 106.539,-30.3312 96.2517,-32.8635 100.076,-38.7263"/>
<text text-anchor="middle" x="42.9446" y="-167.3" font-family="Times,serif" font-size="14.00">http://</text>
</g>
<!-- browser -->
<g id="node3" class="node"><title>browser</title>
<ellipse fill="none" stroke="black" cx="159.445" cy="-222" rx="42.7926" ry="18"/>
<text text-anchor="middle" x="159.445" y="-218.3" font-family="Times,serif" font-size="14.00">browser?</text>
</g>
<!-- html&#45;&gt;browser -->
<g id="edge2" class="edge"><title>html&#45;&gt;browser</title>
<path fill="none" stroke="black" d="M79.5328,-291.611C94.888,-278.427 116.618,-259.771 133.542,-245.239"/>
<polygon fill="black" stroke="black" points="136.109,-247.649 141.416,-238.479 131.549,-242.338 136.109,-247.649"/>
<text text-anchor="middle" x="133.445" y="-261.8" font-family="Times,serif" font-size="14.00" fill="red">file:///</text>
</g>
<!-- chromium -->
<g id="node4" class="node"><title>chromium</title>
<ellipse fill="none" stroke="black" cx="159.445" cy="-120" rx="114.28" ry="18"/>
<text text-anchor="middle" x="159.445" y="-116.3" font-family="Times,serif" font-size="14.00">&#45;&#45;allow&#45;file&#45;access&#45;from&#45;files</text>
</g>
<!-- browser&#45;&gt;chromium -->
<g id="edge3" class="edge"><title>browser&#45;&gt;chromium</title>
<path fill="none" stroke="black" d="M159.445,-203.581C159.445,-188.382 159.445,-166.067 159.445,-148.464"/>
<polygon fill="black" stroke="black" points="162.945,-148.219 159.445,-138.219 155.945,-148.219 162.945,-148.219"/>
<text text-anchor="middle" x="188.445" y="-174.8" font-family="Times,serif" font-size="14.00">chromium</text>
<text text-anchor="middle" x="188.445" y="-159.8" font-family="Times,serif" font-size="14.00">opera</text>
</g>
<!-- using -->
<g id="node5" class="node"><title>using</title>
<ellipse fill="none" stroke="black" cx="325.445" cy="-120" rx="33.5952" ry="18"/>
<text text-anchor="middle" x="325.445" y="-116.3" font-family="Times,serif" font-size="14.00">using?</text>
</g>
<!-- browser&#45;&gt;using -->
<g id="edge5" class="edge"><title>browser&#45;&gt;using</title>
<path fill="none" stroke="black" d="M184.33,-207.286C195.712,-200.928 209.332,-193.199 221.445,-186 246.795,-170.933 275.157,-153.143 295.852,-139.987"/>
<polygon fill="black" stroke="black" points="297.949,-142.8 304.5,-134.474 294.186,-136.897 297.949,-142.8"/>
<text text-anchor="middle" x="288.945" y="-167.3" font-family="Times,serif" font-size="14.00" fill="red">firefox</text>
</g>
<!-- chromium&#45;&gt;ok -->
<g id="edge4" class="edge"><title>chromium&#45;&gt;ok</title>
<path fill="none" stroke="black" d="M148.961,-102.013C145.863,-96.4323 142.702,-90.0945 140.445,-84 135.963,-71.8999 132.725,-57.9739 130.501,-46.1235"/>
<polygon fill="black" stroke="black" points="133.891,-45.1915 128.735,-35.9359 126.994,-46.3867 133.891,-45.1915"/>
</g>
<!-- using&#45;&gt;ok -->
<g id="edge6" class="edge"><title>using&#45;&gt;ok</title>
<path fill="none" stroke="black" d="M300.308,-107.934C294.525,-105.707 288.34,-103.57 282.445,-102 228.632,-87.6662 203.484,-116.752 158.445,-84 151.537,-78.9766 142.952,-60.9891 136.414,-45.2066"/>
<polygon fill="black" stroke="black" points="139.612,-43.7784 132.641,-35.8003 133.115,-46.3845 139.612,-43.7784"/>
<text text-anchor="middle" x="245.945" y="-72.8" font-family="Times,serif" font-size="14.00">jQuery.getJSON</text>
<text text-anchor="middle" x="245.945" y="-57.8" font-family="Times,serif" font-size="14.00">jQuery.get+window.setTimeout</text>
</g>
<!-- no -->
<g id="node6" class="node"><title>no</title>
<ellipse fill="none" stroke="black" cx="357.445" cy="-18" rx="27" ry="18"/>
<text text-anchor="middle" x="357.445" y="-14.3" font-family="Times,serif" font-size="14.00" fill="red">NO!</text>
</g>
<!-- using&#45;&gt;no -->
<g id="edge7" class="edge"><title>using&#45;&gt;no</title>
<path fill="none" stroke="black" d="M330.873,-102.036C335.845,-86.4991 343.282,-63.2581 349.025,-45.3121"/>
<polygon fill="black" stroke="black" points="352.382,-46.3041 352.096,-35.7131 345.715,-44.1706 352.382,-46.3041"/>
<text text-anchor="middle" x="417.445" y="-72.8" font-family="Times,serif" font-size="14.00" fill="red">jQuery.get callback</text>
<text text-anchor="middle" x="417.445" y="-57.8" font-family="Times,serif" font-size="14.00" fill="red">jQuery.when jQuery.done</text>
</g>
</g>
</svg>
