<?xml version="1.0" encoding="UTF-8" standalone="no"?>
<!DOCTYPE svg PUBLIC "-//W3C//DTD SVG 1.1//EN"
 "http://www.w3.org/Graphics/SVG/1.1/DTD/svg11.dtd">
<!-- Generated by graphviz version 2.38.0 (20140413.2041)
 -->
<!-- Title: reading local file using jQuery.get Pages: 1 -->
<svg width="613pt" height="353pt"
 viewBox="0.00 0.00 613.44 352.74" xmlns="http://www.w3.org/2000/svg" xmlns:xlink="http://www.w3.org/1999/xlink">
<g id="graph0" class="graph" transform="scale(1 1) rotate(0) translate(4 348.74)">
<title>reading local file using jQuery.get</title>
<polygon fill="white" stroke="none" points="-4,4 -4,-348.74 609.445,-348.74 609.445,4 -4,4"/>
<!-- ok -->
<g id="node1" class="node"><title>ok</title>
<ellipse fill="none" stroke="black" cx="124.445" cy="-18" rx="27" ry="18"/>
<text text-anchor="middle" x="124.445" y="-14.3" font-family="Times,serif" font-size="14.00">OK</text>
</g>
<!-- html -->
<g id="node2" class="node"><title>html</title>
<ellipse fill="none" stroke="black" cx="60.4446" cy="-326.74" rx="60.3893" ry="18"/>
<text text-anchor="middle" x="60.4446" y="-323.04" font-family="Times,serif" font-size="14.00">open html as?</text>
</g>
<!-- html&#45;&gt;ok -->
<g id="edge1" class="edge"><title>html&#45;&gt;ok</title>
<path fill="none" stroke="black" d="M52.7212,-308.871C36.2716,-270.361 1.76749,-173.767 33.4446,-102 46.1182,-73.2871 74.1734,-50.2147 95.8059,-35.7536"/>
<polygon fill="black" stroke="black" points="97.8074,-38.6278 104.325,-30.2746 94.0207,-32.7404 97.8074,-38.6278"/>
<text text-anchor="middle" x="39.9446" y="-185.04" font-family="Times,serif" font-size="14.00">http://</text>
</g>
<!-- browser -->
<g id="node3" class="node"><title>browser</title>
<ellipse fill="none" stroke="black" cx="166.445" cy="-239.74" rx="42.7926" ry="18"/>
<text text-anchor="middle" x="166.445" y="-236.04" font-family="Times,serif" font-size="14.00">browser?</text>
</g>
<!-- html&#45;&gt;browser -->
<g id="edge2" class="edge"><title>html&#45;&gt;browser</title>
<path fill="none" stroke="black" d="M80.8825,-309.351C97.5771,-295.964 121.309,-276.933 139.546,-262.309"/>
<polygon fill="black" stroke="black" points="141.882,-264.923 147.494,-255.936 137.503,-259.462 141.882,-264.923"/>
<text text-anchor="middle" x="140.445" y="-279.54" font-family="Times,serif" font-size="14.00" fill="red">file:///</text>
</g>
<!-- chromium -->
<g id="node4" class="node"><title>chromium</title>
<ellipse fill="none" stroke="black" cx="166.445" cy="-128.87" rx="124.402" ry="26.7407"/>
<text text-anchor="middle" x="166.445" y="-132.67" font-family="Times,serif" font-size="14.00">&#45;&#45;allow&#45;file&#45;access&#45;from&#45;files</text>
<text text-anchor="middle" x="166.445" y="-117.67" font-family="Times,serif" font-size="14.00">option available?</text>
</g>
<!-- browser&#45;&gt;chromium -->
<g id="edge3" class="edge"><title>browser&#45;&gt;chromium</title>
<path fill="none" stroke="black" d="M166.445,-221.729C166.445,-206.894 166.445,-184.871 166.445,-166.108"/>
<polygon fill="black" stroke="black" points="169.945,-166.086 166.445,-156.086 162.945,-166.086 169.945,-166.086"/>
<text text-anchor="middle" x="195.445" y="-192.54" font-family="Times,serif" font-size="14.00">chromium</text>
<text text-anchor="middle" x="195.445" y="-177.54" font-family="Times,serif" font-size="14.00">opera</text>
</g>
<!-- using -->
<g id="node5" class="node"><title>using</title>
<ellipse fill="none" stroke="black" cx="342.445" cy="-128.87" rx="33.5952" ry="18"/>
<text text-anchor="middle" x="342.445" y="-125.17" font-family="Times,serif" font-size="14.00">using?</text>
</g>
<!-- browser&#45;&gt;using -->
<g id="edge6" class="edge"><title>browser&#45;&gt;using</title>
<path fill="none" stroke="black" d="M191.685,-224.95C203.016,-218.642 216.497,-210.974 228.445,-203.74 257.831,-185.948 290.684,-164.487 313.545,-149.293"/>
<polygon fill="black" stroke="black" points="315.71,-152.056 322.089,-143.596 311.827,-146.231 315.71,-152.056"/>
<text text-anchor="middle" x="294.945" y="-185.04" font-family="Times,serif" font-size="14.00" fill="red">firefox</text>
</g>
<!-- chromium&#45;&gt;ok -->
<g id="edge4" class="edge"><title>chromium&#45;&gt;ok</title>
<path fill="none" stroke="black" d="M136.878,-102.278C132.233,-96.7508 128.097,-90.5739 125.445,-84 120.692,-72.2205 119.925,-58.2352 120.558,-46.2603"/>
<polygon fill="black" stroke="black" points="124.075,-46.2157 121.458,-35.9491 117.101,-45.6067 124.075,-46.2157"/>
<text text-anchor="middle" x="134.945" y="-65.3" font-family="Times,serif" font-size="14.00">yes</text>
</g>
<!-- no -->
<g id="node6" class="node"><title>no</title>
<ellipse fill="none" stroke="black" cx="337.445" cy="-18" rx="27" ry="18"/>
<text text-anchor="middle" x="337.445" y="-14.3" font-family="Times,serif" font-size="14.00" fill="red">NO!</text>
</g>
<!-- chromium&#45;&gt;no -->
<g id="edge5" class="edge"><title>chromium&#45;&gt;no</title>
<path fill="none" stroke="black" d="M159.33,-101.851C156.731,-86.2823 156.66,-67.0503 167.445,-54 184.016,-33.9479 255.564,-25.0232 300.392,-21.3375"/>
<polygon fill="black" stroke="black" points="300.916,-24.8076 310.617,-20.549 300.377,-17.8284 300.916,-24.8076"/>
<text text-anchor="middle" x="213.445" y="-72.8" font-family="Times,serif" font-size="14.00">no</text>
<text text-anchor="middle" x="213.445" y="-57.8" font-family="Times,serif" font-size="14.00">(e.g. on android)</text>
</g>
<!-- using&#45;&gt;ok -->
<g id="edge7" class="edge"><title>using&#45;&gt;ok</title>
<path fill="none" stroke="black" d="M319.726,-115.428C306.664,-107.551 290.507,-96.5089 278.445,-84 267.489,-72.6392 272.198,-63.2975 259.445,-54 230.693,-33.0392 190.466,-24.6098 161.412,-21.2318"/>
<polygon fill="black" stroke="black" points="161.557,-17.7287 151.255,-20.2019 160.851,-24.693 161.557,-17.7287"/>
<text text-anchor="middle" x="365.945" y="-72.8" font-family="Times,serif" font-size="14.00">jQuery.getJSON</text>
<text text-anchor="middle" x="365.945" y="-57.8" font-family="Times,serif" font-size="14.00">jQuery.get+window.setTimeout</text>
</g>
<!-- using&#45;&gt;no -->
<g id="edge8" class="edge"><title>using&#45;&gt;no</title>
<path fill="none" stroke="black" d="M375.645,-125.153C402.663,-120.991 439.202,-110.485 457.445,-84 465.008,-73.0195 465.445,-64.6667 457.445,-54 438.509,-28.7531 402.364,-20.8955 374.672,-18.8178"/>
<polygon fill="black" stroke="black" points="374.697,-15.3143 364.526,-18.2803 374.327,-22.3045 374.697,-15.3143"/>
<text text-anchor="middle" x="534.445" y="-72.8" font-family="Times,serif" font-size="14.00" fill="red">jQuery.get callback</text>
<text text-anchor="middle" x="534.445" y="-57.8" font-family="Times,serif" font-size="14.00" fill="red">jQuery.when jQuery.done</text>
</g>
</g>
</svg>
